<svg xmlns="http://www.w3.org/2000/svg" width="20.295" height="20.295" viewBox="0 0 20.295 20.295"><defs><style>.a{fill:#3a4747;}</style></defs><path class="a" d="M20.638,16.7a5.238,5.238,0,1,0,5.238,5.238A5.248,5.248,0,0,0,20.638,16.7Zm0,8.593a3.355,3.355,0,1,1,3.355-3.355A3.37,3.37,0,0,1,20.638,25.293Z" transform="translate(-10.49 -11.831)"/><ellipse class="a" cx="1.187" cy="1.187" rx="1.187" ry="1.187" transform="translate(14.403 3.56)"/><path class="a" d="M22.059,6.478a5.827,5.827,0,0,0-4.3-1.678H9.333A5.605,5.605,0,0,0,3.4,10.733v8.388A5.888,5.888,0,0,0,5.119,23.5a5.971,5.971,0,0,0,4.255,1.6h8.347a6.042,6.042,0,0,0,4.3-1.6A5.858,5.858,0,0,0,23.7,19.162V10.733A5.866,5.866,0,0,0,22.059,6.478ZM21.9,19.162a4,4,0,0,1-1.187,2.987,4.23,4.23,0,0,1-2.987,1.064H9.374a4.23,4.23,0,0,1-2.987-1.064,4.113,4.113,0,0,1-1.1-3.028V10.733a4.079,4.079,0,0,1,1.1-2.987A4.161,4.161,0,0,1,9.374,6.682H17.8a4.079,4.079,0,0,1,2.987,1.1,4.222,4.222,0,0,1,1.1,2.946v8.429Z" transform="translate(-3.4 -4.8)"/></svg>