<svg xmlns="http://www.w3.org/2000/svg" width="65.648" height="80.021" viewBox="0 0 65.648 80.021"><defs><style>.a{opacity:0.2;}.b{fill:none;stroke:#e96d6d;stroke-linecap:round;stroke-linejoin:round;stroke-width:5px;}</style></defs><g class="a" transform="translate(-1494.748 -173.759)"><path class="b" d="M1547.795,241.031h-40.449a10.077,10.077,0,0,1-9.945-11.7l5.875-38.544a6.048,6.048,0,0,1,5.969-5.074H1545.9a6.047,6.047,0,0,1,5.969,5.074l5.875,38.544A10.075,10.075,0,0,1,1547.795,241.031Z" transform="translate(0 10.25)"/><path class="b" d="M1506.006,195.965v-7.152a12.553,12.553,0,0,1,12.554-12.554h0a12.553,12.553,0,0,1,12.553,12.554v7.152" transform="translate(9.471)"/></g></svg>