<svg xmlns="http://www.w3.org/2000/svg" width="80.021" height="80.021" viewBox="0 0 80.021 80.021"><defs><style>.a{opacity:0.2;}.b{fill:none;stroke:#e96d6d;stroke-linecap:round;stroke-linejoin:round;stroke-width:5px;}</style></defs><g class="a" transform="translate(-926.491 -922.38)"><g transform="translate(928.991 924.88)"><path class="b" d="M928.991,962.391c0,4.818,4.756,8.656,6.494,12.847,1.8,4.343,1.219,10.405,4.493,13.677s9.334,2.693,13.677,4.493c4.191,1.738,8.027,6.494,12.848,6.494s8.657-4.755,12.845-6.494c4.343-1.8,10.405-1.219,13.679-4.493s2.69-9.334,4.491-13.677c1.738-4.191,6.5-8.029,6.5-12.847s-4.758-8.657-6.5-12.845c-1.8-4.345-1.219-10.4-4.493-13.679s-9.334-2.69-13.677-4.491c-4.189-1.738-8.027-6.5-12.845-6.5s-8.657,4.758-12.848,6.5c-4.343,1.8-10.405,1.219-13.677,4.491s-2.692,9.334-4.493,13.679C933.747,953.734,928.991,957.573,928.991,962.391Z" transform="translate(-928.991 -924.88)"/></g><g transform="translate(953.742 942.06)"><g transform="translate(0 9.654)"><line class="b" y1="17.232" x2="17.232" transform="translate(9.522)"/><g transform="translate(0 8.552)"><line class="b" x1="9.522" y1="8.68"/></g></g><g transform="translate(12.76)"><path class="b" d="M946.991,933.124" transform="translate(-946.991 -933.124)"/></g></g></g></svg>